<svg width="67" height="100" version="1.1" viewBox="0 0 67 100" xmlns="http://www.w3.org/2000/svg">
 <path d="m33.5 50-33.5 13 33.5 12 33.5-12-33.5-13m-33.5-50 67 25m-0.5 0v75m-66.5-75 67-25m-33.5 75v25m0-100v12.471" fill="none" stroke="#ccc"/>
 <g fill="#ccc" aria-label="p">
  <path d="m29.592 42.415q-0.41528 0-0.66907-0.25378-0.23071-0.23071-0.23071-0.646v-10.89q0.02307-1.7996 0.85364-3.23 0.85364-1.4535 2.2841-2.2841 1.4535-0.83057 3.2531-0.83057 1.8457 0 3.2992 0.85364 1.4535 0.83057 2.2841 2.2841 0.85364 1.4535 0.85364 3.2992 0 1.8226-0.83057 3.2761-0.8075 1.4535-2.2148 2.3071-1.4073 0.83057-3.1838 0.83057-1.5458 0-2.8147-0.646-1.2458-0.66907-2.0072-1.7534v6.783q0 0.41528-0.25378 0.646-0.23071 0.25378-0.62292 0.25378zm5.491-6.8983q1.3381 0 2.3994-0.62292 1.0613-0.62292 1.6611-1.7073 0.62292-1.1074 0.62292-2.4686 0-1.3843-0.62292-2.4686-0.59985-1.0844-1.6611-1.7073-1.0613-0.646-2.3994-0.646-1.3151 0-2.3763 0.646-1.0613 0.62292-1.6611 1.7073-0.59985 1.0844-0.59985 2.4686 0 1.3612 0.59985 2.4686 0.59985 1.0844 1.6611 1.7073t2.3763 0.62292z" fill="#ccc"/>
 </g>
</svg>
